<?xml version="1.0" encoding="UTF-8" standalone="no"?>
<!-- Created with Inkscape (http://www.inkscape.org/) -->

<svg
   width="768"
   height="480"
   viewBox="0 0 768 480.00002"
   version="1.1"
   id="svg5"
   inkscape:export-filename="ink.svg"
   inkscape:export-xdpi="96"
   inkscape:export-ydpi="96"
   inkscape:version="1.2.2 (732a01da63, 2022-12-09, custom)"
   sodipodi:docname="sokhansara.svg"
   xmlns:inkscape="http://www.inkscape.org/namespaces/inkscape"
   xmlns:sodipodi="http://sodipodi.sourceforge.net/DTD/sodipodi-0.dtd"
   xmlns="http://www.w3.org/2000/svg"
   xmlns:svg="http://www.w3.org/2000/svg">
  <sodipodi:namedview
     id="namedview7"
     pagecolor="#ffffff"
     bordercolor="#000000"
     borderopacity="0.25"
     inkscape:showpageshadow="2"
     inkscape:pageopacity="0.0"
     inkscape:pagecheckerboard="true"
     inkscape:deskcolor="#d1d1d1"
     inkscape:document-units="mm"
     showgrid="false"
     inkscape:zoom="2.49"
     inkscape:cx="444.97992"
     inkscape:cy="271.48594"
     inkscape:window-width="3770"
     inkscape:window-height="2088"
     inkscape:window-x="0"
     inkscape:window-y="0"
     inkscape:window-maximized="1"
     inkscape:current-layer="layer1" />
  <defs
     id="defs2" />
  <g
     inkscape:label="Layer 1"
     inkscape:groupmode="layer"
     id="layer1">
    <g
       aria-label="سخن‌سرا"
       id="text236"
       style="font-size:170.667px;font-family:'JetBrains Mono';-inkscape-font-specification:'JetBrains Mono, @wght=800';font-variation-settings:'wght' 800;fill:#3e9b7e;stroke:#53c44f;stroke-width:0">
      <path
         d="m 608.83378,275.54175 q 7.16668,0 12.58336,-3.00001 5.50001,-3.08334 9.83335,-8.08335 3.41667,4.83335 8.50002,8.00002 5.08334,3.08334 12.66669,3.08334 11.08335,0 17.33337,-5.41668 6.33334,-5.50001 9.00002,-14.33336 2.75,-8.83335 2.75,-18.83337 0,-7.16668 -1.08333,-14.33336 -1.08334,-7.25002 -2.75001,-13.6667 l -20.08337,5.50001 q 0.5,2.00001 1.5,6.08335 1,4.08334 1.75,9.00002 0.83334,4.83334 0.83334,9.50002 0,3.83334 -0.91667,7.08334 -0.83334,3.16668 -2.91667,5.08335 -2.00001,1.91667 -5.50001,1.91667 -5.66668,0 -8.08335,-3.25001 -2.41667,-3.33334 -2.75001,-8.75002 l -1.75,-21.58337 -19.50004,2.41667 q 0.25,3.16667 0.5,6.66668 0.25,3.5 0.33333,6.33334 0.16667,2.83334 0.16667,4.08335 0,7.66668 -2.5,10.91668 -2.41668,3.16668 -9.75002,3.16668 -6.08335,0 -9.16669,-3.08334 -3,-3.08334 -3.41667,-8.91669 l -1.75001,-21.58337 -19.50003,2.41667 q 0.25,3.16667 0.5,6.66668 0.25,3.41667 0.33333,6.25001 0.16667,2.83334 0.16667,4.16668 0,6.00001 -1.83334,9.08335 -1.75,3 -5.58334,4 -3.83335,1.00001 -10.16669,1.00001 h -7.83335 v 22.41671 h 7.66668 q 10.00002,0 16.25003,-2.91667 6.25002,-2.91668 10.75003,-8.00002 3.5,5.00001 9.08335,8.00002 5.66668,2.91667 14.33336,2.91667 z"
         style="font-family:Vazirmatn;-inkscape-font-specification:'Vazirmatn, @wght=700';font-variation-settings:'wght' 700"
         id="path1834" />
      <path
         d="m 486.33357,161.12485 -14.41669,14.4167 14.41669,14.41669 14.4167,-14.41669 z m 59.66679,61.08346 q -6.75001,-0.16667 -14.25003,-2.33334 -7.41668,-2.25 -15.00003,-5.50001 -7.50001,-3.25001 -14.58336,-6.41668 -7.08335,-3.25001 -13.16669,-5.33334 -6.08335,-2.16668 -10.66669,-2.16668 -10.83336,0 -19.00004,6.25002 -8.08335,6.16668 -13.83336,15.58336 l -3.25001,5.33335 17.50004,8.50001 4.00001,-5.00001 q 2.5,-3.25 6.16667,-6.08334 3.66668,-2.83334 8.33335,-2.83334 1.50001,0 4.50001,0.91667 3.00001,0.91667 7.25002,2.58334 4.33334,1.66667 9.66668,3.83334 5.41668,2.08333 11.75003,4.41667 -9.58336,4.58334 -17.50004,8.16668 -7.91668,3.58335 -15.16669,6.08335 -7.16669,2.41667 -14.50003,3.66667 -7.25002,1.25001 -15.6667,1.25001 h -14.1667 v 22.41671 h 13.9167 q 11.66669,0 22.33338,-2.50001 10.66668,-2.58334 20.9167,-7.00001 10.25002,-4.41668 20.66671,-9.91669 2.08334,7.41668 6.75002,11.66669 4.75,4.25001 12.25002,6.00001 7.58335,1.75001 17.9167,1.75001 h 4.91668 v -22.41671 h -4.58334 q -5.41668,0 -10.16669,-0.33334 -4.66668,-0.41666 -7.83335,-1.5 -3.08334,-1.08334 -3.91667,-3.16667 4.08334,-1.75001 9.00001,-3.41668 4.91668,-1.75 9.41669,-2.16667 z"
         style="font-family:Vazirmatn;-inkscape-font-specification:'Vazirmatn, @wght=700';font-variation-settings:'wght' 700"
         id="path1836" />
      <path
         d="m 369.33333,204.79161 -14.41669,14.41669 14.41669,14.4167 14.4167,-14.4167 z m 1.00001,91.50018 q -12.08336,0 -19.00004,-4.08334 -6.91668,-4.08334 -9.83335,-10.91669 -2.83334,-6.83335 -2.83334,-15.00003 0,-7.33335 2,-15.6667 2,-8.41668 4.91668,-17.00003 l -18.91671,-7.33335 q -3.91667,10.16669 -6.08334,20.58337 -2.08334,10.33336 -2.08334,20.08338 0,14.58336 5.41668,26.16672 5.50001,11.66669 16.9167,18.4167 11.50002,6.83335 29.50006,6.83335 16.00003,0 27.16672,-5.66668 11.16669,-5.66668 17.50003,-16.00003 6.41668,-10.33336 7.83335,-24.33338 2.41667,1.75 5.16668,2.5 2.83334,0.66667 6.75001,0.66667 h 3.00001 v -22.41671 h -3.33334 q -5.75001,0 -8.83335,-3.16668 -3.00001,-3.16667 -4.50001,-7.66668 l -6.66668,-20.16671 -20.66671,7.83335 q 3.33334,8.25002 6.16668,17.83337 2.83334,9.50002 2.83334,18.66671 0,8.33335 -3.00001,15.08336 -2.91667,6.75001 -10.00002,10.75002 -7.08335,4.00001 -19.4167,4.00001 z"
         style="font-family:Vazirmatn;-inkscape-font-specification:'Vazirmatn, @wght=700';font-variation-settings:'wght' 700"
         id="path1838" />
      <path
         d="m 231.41639,275.54175 q 7.16668,0 12.58336,-3.00001 5.50001,-3.08334 9.83335,-8.08335 3.41668,4.83335 8.50002,8.00002 5.08334,3.08334 12.66669,3.08334 11.08336,0 17.33337,-5.41668 6.33334,-5.50001 9.00002,-14.33336 2.75,-8.83335 2.75,-18.83337 0,-7.16668 -1.08333,-14.33336 -1.08334,-7.25002 -2.75001,-13.6667 l -20.08337,5.50001 q 0.5,2.00001 1.5,6.08335 1,4.08334 1.75,9.00002 0.83334,4.83334 0.83334,9.50002 0,3.83334 -0.91667,7.08334 -0.83333,3.16668 -2.91667,5.08335 -2.00001,1.91667 -5.50001,1.91667 -5.66668,0 -8.08335,-3.25001 -2.41667,-3.33334 -2.75001,-8.75002 l -1.75,-21.58337 -19.50004,2.41667 q 0.25,3.16667 0.5,6.66668 0.25,3.5 0.33333,6.33334 0.16667,2.83334 0.16667,4.08335 0,7.66668 -2.5,10.91668 -2.41667,3.16668 -9.75002,3.16668 -6.08335,0 -9.16669,-3.08334 -3,-3.08334 -3.41667,-8.91669 l -1.75,-21.58337 -19.50004,2.41667 q 0.25,3.16667 0.5,6.66668 0.25,3.41667 0.33333,6.25001 0.16667,2.83334 0.16667,4.16668 0,6.00001 -1.83334,9.08335 -1.75,3 -5.58334,4 -3.83334,1.00001 -10.16669,1.00001 h -7.83335 v 22.41671 h 7.66668 q 10.00002,0 16.25004,-2.91667 6.25001,-2.91668 10.75002,-8.00002 3.5,5.00001 9.08335,8.00002 5.66668,2.91667 14.33336,2.91667 z"
         style="font-family:Vazirmatn;-inkscape-font-specification:'Vazirmatn, @wght=700';font-variation-settings:'wght' 700"
         id="path1840" />
      <path
         d="m 174.33294,275.54175 h 2.33333 v -22.41671 h -3.25 q -5.58335,0 -8.58335,-3.41668 -2.91668,-3.5 -4.41668,-9.25002 l -4.83334,-18.58337 -20.66671,6.83335 q 2.75001,8.08335 4.91668,17.25004 2.25,9.16668 2.25,16.6667 0,11.08335 -4.50001,18.50003 -4.50001,7.41668 -13.16669,11.91669 -8.58335,4.58335 -20.91671,7.33335 l 7.66668,20.50004 q 14.6667,-2.91667 25.08339,-9.66668 10.50002,-6.66668 16.75003,-16.58337 6.25001,-9.91669 8.25002,-22.33338 2.25,1.41667 5.66667,2.33334 3.41668,0.91667 7.41669,0.91667 z"
         style="font-family:Vazirmatn;-inkscape-font-specification:'Vazirmatn, @wght=700';font-variation-settings:'wght' 700"
         id="path1842" />
      <path
         d="M 107.33281,159.12485 H 86.499431 v 116.33356 h 20.833379 z"
         style="font-family:Vazirmatn;-inkscape-font-specification:'Vazirmatn, @wght=700';font-variation-settings:'wght' 700"
         id="path1844" />
    </g>
    <rect
       style="font-variation-settings:'wght' 700;fill:#477fff;fill-opacity:1;stroke:#53c44f;stroke-width:0;stroke-dasharray:none"
       id="rect1106"
       width="512"
       height="50"
       x="128.00002"
       y="350" />
  </g>
</svg>
